<svg width="127" height="51" viewBox="0 0 127 51" fill="none" xmlns="http://www.w3.org/2000/svg">
<path d="M7.21164 12.4379L14.5343 12.4439C14.5624 12.4439 14.5845 12.466 14.5845 12.4941V18.0225C14.5845 18.0607 14.5534 18.0918 14.5152 18.0918L7.21064 18.0978C7.18252 18.0978 7.16043 18.1199 7.16043 18.148L7.15441 28.3453C7.15441 28.3694 7.13533 28.3885 7.11123 28.3885C4.8648 28.4226 2.63912 28.4193 0.434185 28.3785C0.406071 28.3775 0.382978 28.3544 0.382978 28.3262L0.376953 2.40323C0.376953 2.37512 0.399043 2.35303 0.427157 2.35303H15.2432C15.2813 2.35303 15.3125 2.38415 15.3125 2.42231V7.91556C15.3125 7.96275 15.2743 8.00091 15.2271 8.00091H7.19156C7.17148 8.00091 7.15441 8.01798 7.15441 8.03806L7.16043 12.3887C7.16043 12.4158 7.18353 12.4379 7.21164 12.4379Z" fill="black"/>
<path d="M36.3534 10.6808L39.8054 10.6928C39.8335 10.6928 39.8556 10.7149 39.8556 10.743L39.8616 15.7403C39.8616 15.7774 39.8315 15.8075 39.7933 15.8075H36.3474C36.3193 15.8075 36.2972 15.8296 36.2972 15.8577V28.3323C36.2972 28.3714 36.266 28.4026 36.2269 28.4026L30.0669 28.3895C30.0378 28.3895 30.0147 28.3674 30.0147 28.3393L29.9967 15.8889C29.9967 15.8437 29.9585 15.8065 29.9123 15.8065L28.0076 15.7905C27.9795 15.7895 27.9564 15.7674 27.9564 15.7393L27.9443 10.743C27.9443 10.7149 27.9664 10.6928 27.9935 10.6928L29.9384 10.6868C29.9705 10.6868 29.9967 10.6607 29.9967 10.6286L30.0147 5.43452C30.0147 5.4064 30.0378 5.38331 30.0659 5.38331L36.2098 5.36523C36.258 5.36523 36.2972 5.4054 36.2972 5.4546L36.3032 10.6296C36.3032 10.6577 36.3253 10.6808 36.3534 10.6808Z" fill="black"/>
<path d="M44.3949 26.3111C43.0233 25.042 42.1401 23.4904 41.7451 21.6563C41.3883 20.0009 41.4242 18.4205 41.8526 16.9151C42.0313 16.2838 42.29 15.6683 42.6287 15.0686C43.4607 13.5959 44.6044 12.4282 46.0596 11.5654C46.6232 11.2314 47.231 10.9539 47.883 10.733C48.879 10.3956 49.9289 10.1878 51.0328 10.1095C52.0341 10.0385 52.9632 10.0422 53.82 10.1205C56.0999 10.3294 58.089 11.1895 59.7872 12.701C61.2391 13.9936 62.1729 15.5863 62.5886 17.4793C62.7278 18.1126 62.8001 18.7763 62.8054 19.4704C62.8295 22.4625 61.6769 24.9084 59.3474 26.8081C58.1051 27.8222 56.6304 28.4812 54.9235 28.7851C53.5265 29.0342 52.168 29.1004 50.848 28.984C50.119 28.9197 49.4577 28.82 48.864 28.6847C47.1785 28.3005 45.6888 27.5093 44.3949 26.3111ZM56.2911 19.5497C56.2911 17.2665 54.4406 15.416 52.1573 15.416C49.8741 15.416 48.0236 17.2665 48.0236 19.5497C48.0236 21.833 49.8741 23.6835 52.1573 23.6835C54.4406 23.6835 56.2911 21.833 56.2911 19.5497Z" fill="black"/>
<path d="M21.9068 7.41153C23.8471 7.41153 25.42 5.83861 25.42 3.8983C25.42 1.958 23.8471 0.385071 21.9068 0.385071C19.9665 0.385071 18.3936 1.958 18.3936 3.8983C18.3936 5.83861 19.9665 7.41153 21.9068 7.41153Z" fill="black"/>
<path d="M25.0073 10.6869H18.7981C18.7732 10.6869 18.7529 10.7071 18.7529 10.7321V28.3494C18.7529 28.3744 18.7732 28.3946 18.7981 28.3946H25.0073C25.0322 28.3946 25.0524 28.3744 25.0524 28.3494V10.7321C25.0524 10.7071 25.0322 10.6869 25.0073 10.6869Z" fill="black"/>
<path d="M59.546 44.8933C58.9147 44.327 58.4519 43.6633 58.1573 42.9022C57.9632 42.3995 57.8153 41.7485 57.7135 40.9493C57.5863 39.9506 57.5977 38.9539 57.7477 37.9592C57.8561 37.2349 58.0338 36.5923 58.2808 36.0314C59.0901 34.1939 60.5413 33.0774 62.6345 32.6818C63.6097 32.4977 64.662 32.4783 65.7913 32.6236C68.4714 32.969 70.078 34.459 70.6108 37.0937C71.0037 39.0355 70.8846 40.866 70.2533 42.5849C69.8176 43.7711 69.0632 44.6851 67.9902 45.327C67.4634 45.6423 66.8418 45.8836 66.1256 46.051C64.6423 46.3977 63.1335 46.3739 61.5993 45.9797C60.8114 45.7768 60.127 45.4147 59.546 44.8933ZM62.2519 43.6312C62.5003 43.7811 62.7533 43.8842 63.011 43.9404C63.6369 44.0763 64.3106 44.093 65.0322 43.9906C65.6373 43.9043 66.1648 43.6442 66.6146 43.2105C66.8756 42.9588 67.0965 42.6542 67.2773 42.2968C67.4486 41.956 67.5741 41.5959 67.6538 41.2164C67.8231 40.4064 67.8807 39.5925 67.8265 38.7745C67.787 38.1807 67.7251 37.6975 67.6407 37.3246C67.5216 36.8038 67.3215 36.3523 67.0403 35.9701C66.5838 35.3516 66.0252 34.9814 65.3645 34.8596C64.669 34.7318 64.1252 34.6983 63.7329 34.7592C62.198 34.9989 61.2378 35.846 60.8522 37.3005C60.5985 38.2597 60.5276 39.2668 60.6394 40.3217C60.709 40.9791 60.792 41.4684 60.8884 41.7897C61.0363 42.283 61.2843 42.7238 61.6324 43.1121C61.8212 43.3229 62.0277 43.4959 62.2519 43.6312Z" fill="#064E43"/>
<path d="M17.2735 36.6963C16.8585 37.3691 16.6229 38.1255 16.5667 38.9655C16.5345 39.4388 16.5496 39.8997 16.6118 40.3481C16.6768 40.8221 16.7993 41.2625 16.9793 41.6695C17.6246 43.1321 18.8174 43.9199 20.5578 44.0331C21.2861 44.0799 21.9829 43.9574 22.6483 43.6656C22.6865 43.6495 22.7106 43.6114 22.7106 43.5702L22.7156 40.6574C22.7156 40.5961 22.6654 40.5459 22.6041 40.5459L20.1281 40.5479C19.9112 40.5479 19.7787 40.4412 19.7305 40.2277C19.624 39.7504 19.6287 39.2771 19.7445 38.8079C19.7914 38.6205 19.9119 38.5264 20.106 38.5258C21.6262 38.5211 23.146 38.5248 24.6655 38.5368C24.9105 38.5388 25.0902 38.581 25.2047 38.6633C25.3191 38.747 25.4021 38.8578 25.4537 38.9957C25.4858 39.0813 25.5035 39.2142 25.5069 39.3943C25.5524 41.5503 25.5511 43.357 25.5029 44.8142C25.4901 45.1985 25.2877 45.4572 24.8954 45.5904C23.7996 45.9619 22.6466 46.1885 21.4364 46.2701C20.4015 46.3404 19.4038 46.2584 18.4433 46.0241C15.9331 45.4137 14.3955 43.8724 13.8306 41.4004C13.5608 40.2189 13.5578 39.0208 13.8215 37.8058C13.9762 37.0976 14.2004 36.4694 14.4943 35.9212C15.0867 34.8167 15.9595 33.972 17.1129 33.3869C17.7863 33.0449 18.5012 32.8123 19.2576 32.6891C19.868 32.5894 20.5354 32.5489 21.2597 32.5676C22.1948 32.5924 23.1145 32.7447 24.0189 33.0245C24.4968 33.1724 24.8723 33.3474 25.1454 33.5496C25.3268 33.6841 25.4436 33.8639 25.4958 34.0888C25.5199 34.1912 25.5397 34.397 25.5551 34.7063C25.5731 35.057 25.541 35.3743 25.4587 35.6581C25.4058 35.8422 25.3027 35.9282 25.1494 35.9162C25.0832 35.9108 24.9767 35.8673 24.8301 35.7857C23.4412 35.0139 21.992 34.6765 20.4825 34.7736C19.8152 34.8164 19.1933 35.0119 18.617 35.3599C18.0661 35.6926 17.6183 36.1381 17.2735 36.6963Z" fill="#064E43"/>
<path d="M48.0536 44.7898C47.0938 43.8862 46.505 42.7432 46.2875 41.361C46.078 40.0296 46.0897 38.7651 46.3226 37.5676C46.5911 36.1847 47.2146 35.0403 48.1932 34.1347C48.6872 33.6782 49.2481 33.32 49.876 33.0603C50.5186 32.7939 51.1883 32.6339 51.8852 32.5804C52.586 32.5262 53.2537 32.5546 53.8883 32.6657C54.6694 32.8023 55.3803 33.0921 56.0209 33.5353C56.1903 33.6531 56.2937 33.8415 56.3312 34.1005C56.3934 34.5363 56.4021 34.9717 56.3573 35.4068C56.3365 35.607 56.2903 35.7519 56.2187 35.8416C56.0835 36.0109 55.8961 36.0079 55.6564 35.8326C54.7862 35.1946 53.8471 34.8536 52.839 34.8094C52.1335 34.7786 51.5029 34.9436 50.9474 35.3044C50.452 35.6264 50.0504 36.0996 49.7425 36.7242C49.5223 37.1713 49.372 37.6439 49.2917 38.1419C49.22 38.5837 49.1849 39.0737 49.1862 39.6119C49.1869 40.1882 49.2619 40.7528 49.4111 41.3057C49.5798 41.9323 49.8188 42.4393 50.128 42.8269C50.683 43.5224 51.4527 43.9039 52.4374 43.9715C53.4656 44.0418 54.4298 43.8095 55.3301 43.2747C55.4205 43.2212 55.6069 43.1258 55.8894 42.9885C56.1531 42.86 56.3084 42.938 56.3553 43.2225C56.4456 43.7761 56.4617 44.2433 56.4035 44.6242C56.3579 44.9227 56.2194 45.1593 55.9878 45.334C55.8787 45.4157 55.6447 45.5305 55.2859 45.6784C53.6185 46.3679 51.8972 46.4616 50.122 45.9596C49.3362 45.738 48.6467 45.3481 48.0536 44.7898Z" fill="#064E43"/>
<path d="M0.226728 46.046C0.0587145 45.9777 -0.0159211 45.8585 0.00282147 45.6885C0.00616836 45.6544 0.0396373 45.5332 0.103228 45.325C0.178199 45.078 0.29467 44.737 0.452644 44.3019C1.5203 41.3586 2.59399 38.4181 3.67369 35.4802C3.69712 35.4159 3.83802 35.0203 4.0964 34.2934C4.2691 33.8074 4.42239 33.4158 4.55627 33.1186C4.64195 32.9292 4.80762 32.8231 5.05328 32.8003C5.7568 32.7367 6.58482 32.7237 7.53734 32.7611C7.76359 32.7698 7.95336 32.8298 8.10665 32.9409C8.22245 33.0245 8.32253 33.1819 8.40687 33.4128C9.81524 37.2704 11.2229 41.1284 12.63 44.9867C12.6996 45.1761 12.7628 45.3672 12.8197 45.56C12.9081 45.8585 12.803 46.0279 12.5045 46.0681C11.7186 46.1731 10.9371 46.1728 10.16 46.067C10.0328 46.0496 9.94744 45.9804 9.90393 45.8592L8.91593 43.1191C8.90589 43.09 8.87878 43.0709 8.84866 43.0709H3.71687C3.68675 43.0709 3.65964 43.09 3.64859 43.1191L2.69372 45.8371C2.65088 45.9596 2.5652 46.0332 2.43668 46.058C2.18433 46.1082 1.9303 46.137 1.67459 46.1444C1.33857 46.1537 1.09659 46.1588 0.948653 46.1594C0.656804 46.1608 0.416163 46.1229 0.226728 46.046ZM8.18798 40.9764C8.21509 40.9764 8.23517 40.9493 8.22613 40.9242L6.30636 35.3948C6.28159 35.3239 6.25682 35.3239 6.23206 35.3948L4.30927 40.9132C4.29621 40.9493 4.32332 40.9875 4.36248 40.9875L8.18798 40.9764Z" fill="#064E43"/>
<path d="M40.96 31.692C40.8248 31.6518 40.8037 31.5765 40.8967 31.466C41.6217 30.6119 42.3811 29.7899 43.175 29.0001C43.3323 28.8434 43.5826 28.7524 43.926 28.727C44.4655 28.6868 45.0007 28.7166 45.5315 28.8163C45.6366 28.8364 45.7377 28.8833 45.8347 28.9569C45.904 29.0091 45.9181 29.1075 45.8669 29.1778C45.7531 29.3337 45.6276 29.4696 45.4903 29.5854C44.7841 30.1839 44.0773 30.7816 43.3698 31.3787C43.1522 31.5621 42.9263 31.6836 42.692 31.7432C42.534 31.784 42.2864 31.8101 41.949 31.8215C41.6143 31.8329 41.2846 31.7897 40.96 31.692Z" fill="#064E43"/>
<path d="M43.1555 32.7382H41.4245C41.1162 32.7382 40.8662 32.9881 40.8662 33.2964V45.546C40.8662 45.8544 41.1162 46.1043 41.4245 46.1043H43.1555C43.4638 46.1043 43.7137 45.8544 43.7137 45.546V33.2964C43.7137 32.9881 43.4638 32.7382 43.1555 32.7382Z" fill="#064E43"/>
<path d="M76.1154 43.84L80.4058 43.846C80.6026 43.846 80.7251 43.9411 80.7733 44.1312C80.9065 44.6533 80.9011 45.2065 80.7572 45.7909C80.7177 45.9509 80.6153 46.0322 80.45 46.0349C78.33 46.0684 76.2302 46.0684 74.1504 46.0349C73.8573 46.0302 73.6491 45.9857 73.5259 45.9013C73.3264 45.7648 73.2267 45.5483 73.2267 45.2517C73.2234 41.2441 73.2217 37.2222 73.2217 33.1858C73.2217 32.9971 73.313 32.8786 73.4958 32.8304C74.1913 32.6483 74.9005 32.6386 75.6234 32.8013C75.8088 32.8428 75.9333 32.9221 75.9969 33.0392C76.0545 33.1443 76.0772 33.2615 76.0652 33.3907C76.0485 33.5794 76.0401 33.6768 76.0401 33.6829C76.0535 37.0518 76.0615 40.4208 76.0642 43.7898C76.0642 43.8179 76.0873 43.84 76.1154 43.84Z" fill="#064E43"/>
<path d="M81.499 45.9857C81.3049 45.8686 81.2577 45.6714 81.3574 45.3943C82.7819 41.4664 84.2123 37.5405 85.6488 33.6166C85.7485 33.3442 85.8335 33.1497 85.9038 33.0332C86.0036 32.8692 86.1689 32.7769 86.3998 32.7561C87.4347 32.6637 88.3364 32.6641 89.1048 32.7571C89.3371 32.7852 89.5071 32.8953 89.6149 33.0874C89.6155 33.0888 89.6811 33.2662 89.8117 33.6196C91.2227 37.4424 92.6281 41.2669 94.0277 45.0931C94.1087 45.314 94.1516 45.5375 94.1563 45.7638C94.1596 45.9178 94.085 46.0064 93.9324 46.0299C93.0843 46.1591 92.2686 46.1561 91.4854 46.0208C91.3455 45.9961 91.2525 45.9181 91.2063 45.7869L90.2615 43.104C90.2424 43.0518 90.1942 43.0177 90.141 43.0177H85.0614C85.0112 43.0177 84.967 43.0498 84.951 43.098C84.6826 43.9274 84.3977 44.7644 84.0965 45.6092C84.0463 45.7504 83.979 45.8588 83.8947 45.9345C83.8271 45.9947 83.7146 46.0352 83.5573 46.056C83.2354 46.0982 82.9117 46.1169 82.5864 46.1122C82.5743 46.1122 82.4227 46.1146 82.1316 46.1192C81.8645 46.1239 81.6536 46.0794 81.499 45.9857ZM87.5676 35.3767L85.6428 40.868C85.6277 40.9091 85.6598 40.9523 85.704 40.9523L89.4673 40.9352C89.5145 40.9352 89.5476 40.888 89.5325 40.8439L87.6348 35.3767C87.6128 35.3118 87.5903 35.3118 87.5676 35.3767Z" fill="#064E43"/>
<path d="M31.2579 40.7046C31.2459 43.4437 31.2439 45.0562 31.2519 45.5422C31.2559 45.7765 31.1743 45.9301 31.0069 46.0031C30.9547 46.0258 30.8031 46.0526 30.5521 46.0834C29.9302 46.161 29.3094 46.1396 28.6895 46.0191C28.5356 45.989 28.4509 45.896 28.4355 45.74C28.4127 45.5171 28.4014 45.2754 28.4014 45.015C28.4107 41.2665 28.4154 37.518 28.4154 33.7695C28.4154 33.1041 28.7417 32.7691 29.3944 32.7644C30.8168 32.753 32.2392 32.7631 33.6617 32.7945C34.566 32.814 35.4258 33.0154 36.2411 33.399C36.9527 33.7344 37.4547 34.2464 37.7472 34.9352C37.9936 35.5176 38.0769 36.1746 37.9972 36.9062C37.8373 38.3768 36.9738 39.3548 35.4067 39.8401C35.3217 39.8662 35.3191 39.8987 35.3987 39.9375C35.9309 40.1972 36.3596 40.5731 36.6849 41.065C36.8683 41.3428 37.0287 41.633 37.1659 41.9356C37.289 42.2067 37.3526 42.3466 37.3566 42.3553C37.8473 43.3881 38.3025 44.4364 38.7222 45.5C38.7978 45.6908 38.7811 45.8384 38.672 45.9428C38.6037 46.0084 38.4839 46.0502 38.3125 46.0683C37.9752 46.1031 37.521 46.1202 36.95 46.1195C36.5524 46.1189 36.2274 46.08 35.975 46.0031C35.9439 45.993 35.9158 45.9739 35.8957 45.9488C35.7953 45.8237 35.7147 45.6858 35.6537 45.5352C35.1905 44.3898 34.6999 43.2563 34.1818 42.1344C34.0178 41.7796 33.7996 41.4627 33.5271 41.1835C33.2279 40.877 32.8628 40.7069 32.4317 40.6735C32.0575 40.644 31.683 40.6366 31.3081 40.6514C31.28 40.6524 31.2579 40.6765 31.2579 40.7046ZM34.5212 35.3198C34.1825 35.0681 33.7872 34.9168 33.3354 34.8659C33.2724 34.8586 32.9381 34.8469 32.3323 34.8308C31.9969 34.8221 31.6619 34.8194 31.3272 34.8228C31.2991 34.8238 31.276 34.8459 31.276 34.874L31.2529 38.5378C31.2519 38.5659 31.275 38.589 31.3041 38.589C31.8718 38.589 32.4233 38.5867 32.9588 38.582C33.4461 38.5773 33.8709 38.4689 34.233 38.2567C34.739 37.9601 35.0235 37.5334 35.0865 36.9765C35.1226 36.6592 35.1055 36.3637 35.0352 36.0899C34.9522 35.7693 34.7809 35.5126 34.5212 35.3198Z" fill="#064E43"/>
<path d="M67.0713 6.01782H86.5502C90.8755 6.01782 94.3819 9.52421 94.3819 13.8495V28.9106H74.903C70.5777 28.9106 67.0713 25.4042 67.0713 21.0788V6.01782Z" fill="url(#paint0_radial_781_7938)"/>
<path d="M126.01 6.01782H106.531C102.206 6.01782 98.6991 9.52421 98.6991 13.8495V28.9106H118.178C122.503 28.9106 126.01 25.4042 126.01 21.0788V6.01782Z" fill="url(#paint1_radial_781_7938)"/>
<path d="M98.6992 33.228H119.383C123.043 33.228 126.01 36.195 126.01 39.8549V51H105.527C101.756 51 98.6992 47.9432 98.6992 44.1724V33.228Z" fill="url(#paint2_radial_781_7938)"/>
<defs>
<radialGradient id="paint0_radial_781_7938" cx="0" cy="0" r="1" gradientUnits="userSpaceOnUse" gradientTransform="translate(67.0713 17.4642) scale(27.3106 32.5811)">
<stop stop-color="#9BC97E"/>
<stop offset="0.676905" stop-color="#407C27"/>
</radialGradient>
<radialGradient id="paint1_radial_781_7938" cx="0" cy="0" r="1" gradientUnits="userSpaceOnUse" gradientTransform="translate(99.402 28.9106) rotate(-38.6874) scale(32.6084 38.9013)">
<stop stop-color="#F8FC79"/>
<stop offset="1" stop-color="#B5AE52"/>
</radialGradient>
<radialGradient id="paint2_radial_781_7938" cx="0" cy="0" r="1" gradientUnits="userSpaceOnUse" gradientTransform="translate(98.6992 33.228) rotate(33.0535) scale(32.584 30.177)">
<stop stop-color="#99C685"/>
<stop offset="0.592464" stop-color="#005A1A"/>
</radialGradient>
</defs>
</svg>
